<svg width="14" height="14" viewBox="0 0 14 14" fill="none" xmlns="http://www.w3.org/2000/svg">
<path fillRule="evenodd" clipRule="evenodd" d="M5.76191 8.87109C3.51958 8.87109 1.60449 9.21001 1.60449 10.568C1.60449 11.9254 3.50733 12.2772 5.76191 12.2772C8.00424 12.2772 9.91933 11.9377 9.91933 10.5803C9.91933 9.22284 8.01649 8.87109 5.76191 8.87109Z" stroke="#3876BB" strokeWidth="1.5" strokeLinecap="round" strokeLinejoin="round"/>
<path fillRule="evenodd" clipRule="evenodd" d="M5.76232 6.9348C7.24166 6.9348 8.42699 5.74889 8.42699 4.27014C8.42699 2.7908 7.24166 1.60547 5.76232 1.60547C4.28357 1.60547 3.09766 2.7908 3.09766 4.27014C3.09766 5.74889 4.28357 6.9348 5.76232 6.9348Z" stroke="#3876BB" strokeWidth="1.5" strokeLinecap="round" strokeLinejoin="round"/>
<path d="M11.2028 5.05859V7.39776" stroke="#3876BB" strokeWidth="1.5" strokeLinecap="round" strokeLinejoin="round"/>
<path d="M12.3956 6.22917H10.0098" stroke="#3876BB" strokeWidth="1.5" strokeLinecap="round" strokeLinejoin="round"/>
</svg>
