<svg width="14" height="14" viewBox="0 0 14 14" fill="none" xmlns="http://www.w3.org/2000/svg">
<path fillRule="evenodd" clipRule="evenodd" d="M5.33412 7.36847C7.1705 7.36847 8.64254 5.87738 8.64254 4.01724C8.64254 2.1571 7.1705 0.666016 5.33412 0.666016C3.49774 0.666016 2.0257 2.1571 2.0257 4.01724C2.0257 5.87738 3.49774 7.36847 5.33412 7.36847ZM5.33398 9.00947C2.6368 9.00947 0.333984 9.44071 0.333984 11.1636C0.333984 12.8859 2.62279 13.3327 5.33398 13.3327C8.0305 13.3327 10.334 12.9014 10.334 11.1785C10.334 9.45558 8.04518 9.00947 5.33398 9.00947ZM12.266 5.39126H13.068C13.3982 5.39126 13.6673 5.66422 13.6673 5.999C13.6673 6.33378 13.3982 6.60675 13.068 6.60675H12.266V7.3916C12.266 7.72638 11.9975 7.99935 11.6667 7.99935C11.3365 7.99935 11.0673 7.72638 11.0673 7.3916V6.60675H10.2667C9.93584 6.60675 9.66734 6.33378 9.66734 5.999C9.66734 5.66422 9.93584 5.39126 10.2667 5.39126H11.0673V4.60709C11.0673 4.27231 11.3365 3.99935 11.6667 3.99935C11.9975 3.99935 12.266 4.27231 12.266 4.60709V5.39126Z" fill="#7C8993"/>
</svg>
