<svg width="20" height="20" viewBox="0 0 20 20" fill="none" xmlns="http://www.w3.org/2000/svg">
<path d="M15.1384 11.982C14.5786 11.8616 14.1358 12.1215 13.7437 12.3485C13.3422 12.5823 12.5786 13.2017 12.141 13.0432C9.90025 12.1206 7.79279 10.1594 6.88051 7.90966C6.71972 7.46266 7.33622 6.69428 7.56837 6.28799C7.79365 5.8947 8.04816 5.44771 7.93209 4.88376C7.82719 4.37699 6.47036 2.6505 5.99058 2.17839C5.67416 1.86653 5.35 1.695 5.01724 1.66728C3.76618 1.61357 2.36895 3.28289 2.12389 3.68224C1.50997 4.53379 1.51341 5.66687 2.13421 7.04079C3.63033 10.7311 9.28891 16.3004 12.9931 17.8528C13.6767 18.1724 14.3018 18.3327 14.8632 18.3327C15.4127 18.3327 15.9019 18.1794 16.3224 17.8753C16.6396 17.6925 18.3774 16.2259 18.3318 14.9412C18.3043 14.6138 18.1332 14.2863 17.8254 13.9693C17.3567 13.485 15.6414 12.0877 15.1384 11.982Z" fill="#3876BB"/>
</svg>
