<svg width="16" height="16" viewBox="0 0 16 16" fill="none" xmlns="http://www.w3.org/2000/svg">
<path d="M12.8825 6.30859C12.8825 6.30859 12.5205 10.7986 12.3105 12.6899C12.2105 13.5933 11.6525 14.1226 10.7385 14.1393C8.99921 14.1706 7.25788 14.1726 5.51921 14.1359C4.63988 14.1179 4.09121 13.5819 3.99321 12.6946C3.78188 10.7866 3.42188 6.30859 3.42188 6.30859" stroke="#7C8993" stroke-width="1.2" stroke-linecap="round" stroke-linejoin="round"/>
<path d="M13.8053 4.15755H2.5" stroke="#7C8993" stroke-width="1.5" stroke-linecap="round" stroke-linejoin="round"/>
<path d="M11.6264 4.15803C11.1031 4.15803 10.6524 3.78803 10.5497 3.27536L10.3877 2.4647C10.2877 2.0907 9.94907 1.83203 9.56307 1.83203H6.74107C6.35507 1.83203 6.0164 2.0907 5.9164 2.4647L5.7544 3.27536C5.65173 3.78803 5.20107 4.15803 4.67773 4.15803" stroke="#7C8993" stroke-width="1.2" stroke-linecap="round" stroke-linejoin="round"/>
</svg>
