<svg width="16" height="16" viewBox="0 0 16 16" fill="none" xmlns="http://www.w3.org/2000/svg">
<path d="M7.66198 1.85938H5.16932C3.11932 1.85938 1.83398 3.31071 1.83398 5.36538V10.908C1.83398 12.9627 3.11332 14.414 5.16932 14.414H11.052C13.1087 14.414 14.388 12.9627 14.388 10.908V8.22271" stroke="#7C8993" strokeWidth="1.2" strokeLinecap="round" strokeLinejoin="round"/>
<path fillRule="evenodd" clipRule="evenodd" d="M5.88639 7.27903L10.8684 2.29703C11.4891 1.67703 12.4951 1.67703 13.1157 2.29703L13.9271 3.10836C14.5477 3.72903 14.5477 4.7357 13.9271 5.3557L8.92106 10.3617C8.64972 10.633 8.28172 10.7857 7.89772 10.7857H5.40039L5.46306 8.2657C5.47239 7.89503 5.62372 7.5417 5.88639 7.27903Z" stroke="#7C8993" strokeWidth="1.2" strokeLinecap="round" strokeLinejoin="round"/>
<path d="M10.1113 3.06641L13.1553 6.11041" stroke="#7C8993" strokeWidth="1.2" strokeLinecap="round" strokeLinejoin="round"/>
</svg>
