<svg width="16" height="16" viewBox="0 0 16 16" fill="none" xmlns="http://www.w3.org/2000/svg">
<path d="M6.1939 13.9995C5.64311 13.9968 5.09836 13.8846 4.59133 13.6695C4.08431 13.4543 3.62514 13.1404 3.24057 12.7461C2.85888 12.3844 2.55227 11.9509 2.33829 11.4705C2.12431 10.9901 2.00715 10.4722 1.99353 9.94653C1.97991 9.42082 2.07008 8.89758 2.2589 8.40676C2.44771 7.91594 2.73146 7.46716 3.0939 7.08612L8.00057 2.13279C8.2626 1.87124 8.57491 1.6655 8.91866 1.52801C9.2624 1.39051 9.63045 1.3241 10.0006 1.33279C10.397 1.33414 10.7893 1.41441 11.1544 1.56893C11.5195 1.72345 11.8502 1.94912 12.1272 2.23279C12.6786 2.76361 12.9983 3.49046 13.017 4.25557C13.0357 5.02068 12.7519 5.7623 12.2272 6.31945L7.2939 11.2728C7.13589 11.4319 6.94786 11.558 6.74072 11.6438C6.53358 11.7296 6.31145 11.7735 6.08723 11.7728C5.84502 11.7731 5.60519 11.7249 5.38191 11.631C5.15863 11.5371 4.95643 11.3994 4.78723 11.2261C4.44905 10.8987 4.25375 10.451 4.24376 9.98042C4.23378 9.50981 4.40991 9.05427 4.7339 8.71279L9.28723 4.13945C9.41682 4.05339 9.57243 4.01535 9.72711 4.03193C9.88178 4.04851 10.0258 4.11866 10.1342 4.23023C10.2426 4.3418 10.3086 4.48777 10.3207 4.64286C10.3328 4.79795 10.2903 4.95239 10.2006 5.07945L5.64723 9.65279C5.57131 9.74426 5.53435 9.8619 5.54433 9.98036C5.5543 10.0988 5.61041 10.2086 5.70057 10.2861C5.79438 10.3806 5.92084 10.4355 6.0539 10.4395C6.10319 10.4402 6.15213 10.4311 6.1979 10.4128C6.24367 10.3945 6.28536 10.3673 6.32057 10.3328L11.2472 5.37945C11.5238 5.07224 11.6683 4.66854 11.6496 4.25562C11.6309 3.8427 11.4504 3.45373 11.1472 3.17279C10.8656 2.88041 10.4827 2.70709 10.0772 2.68849C9.67165 2.66989 9.27443 2.80742 8.96723 3.07279L4.04057 7.99945C3.801 8.25677 3.61467 8.55892 3.49232 8.88851C3.36996 9.21811 3.31399 9.56865 3.32762 9.91996C3.34125 10.2713 3.42422 10.6164 3.57174 10.9355C3.71927 11.2547 3.92845 11.5415 4.18723 11.7795C4.44675 12.0485 4.75728 12.2631 5.10068 12.4107C5.44407 12.5584 5.81345 12.6362 6.18723 12.6395C6.50951 12.6421 6.82913 12.581 7.12774 12.4597C7.42634 12.3384 7.69804 12.1594 7.92723 11.9328L12.8539 6.97945C12.9156 6.91729 12.989 6.8679 13.0698 6.83409C13.1506 6.80028 13.2373 6.78272 13.3249 6.78241C13.4125 6.78211 13.4993 6.79905 13.5803 6.83229C13.6614 6.86552 13.7351 6.9144 13.7972 6.97612C13.8594 7.03784 13.9088 7.1112 13.9426 7.19201C13.9764 7.27282 13.994 7.3595 13.9943 7.4471C13.9946 7.53469 13.9776 7.62149 13.9444 7.70254C13.9112 7.78359 13.8623 7.85729 13.8006 7.91945L8.8739 12.8728C8.52411 13.2288 8.10705 13.5117 7.64698 13.7051C7.1869 13.8985 6.69298 13.9986 6.1939 13.9995Z" fill="#7C8993"/>
</svg>
