<svg id="Icons" height="512" viewBox="0 0 74 74" width="512" xmlns="http://www.w3.org/2000/svg"><path d="m45.169 71.01a1 1 0 0 1 -.233-1.972c.974-.235 1.98-.533 3.077-.913a1 1 0 1 1 .654 1.89c-1.158.4-2.226.717-3.263.967a1 1 0 0 1 -.235.028z"/><path d="m36.25 71.99h-.021a35 35 0 1 1 27.144-11.982 1 1 0 0 1 -1.506-1.316 33 33 0 1 0 -25.6 11.3 1 1 0 0 1 -.021 2z"/><path d="m55.021 66.84a1 1 0 0 1 -.537-1.84c.848-.539 1.661-1.1 2.416-1.666a1 1 0 1 1 1.2 1.6c-.8.6-1.652 1.188-2.544 1.754a.989.989 0 0 1 -.535.152z"/><path d="m37 64a26.764 26.764 0 0 1 -15.921-5.2 1 1 0 0 1 -.116-1.514l36.32-36.32a.988.988 0 0 1 .784-.29 1 1 0 0 1 .73.406 26.99 26.99 0 0 1 -21.797 42.918zm-13.779-6.146a24.767 24.767 0 0 0 13.779 4.146 25.028 25.028 0 0 0 25-25 24.767 24.767 0 0 0 -4.146-13.779z"/><path d="m16.01 53.33c-.026 0-.051 0-.077 0a1 1 0 0 1 -.73-.406 26.99 26.99 0 0 1 37.718-37.724 1 1 0 0 1 .116 1.514l-36.32 36.32a1 1 0 0 1 -.707.296zm20.99-41.33a25.028 25.028 0 0 0 -25 25 24.767 24.767 0 0 0 4.146 13.779l34.633-34.633a24.767 24.767 0 0 0 -13.779-4.146z"/></svg>